<svg width="24" height="24" viewBox="0 0 24 24" fill="none" xmlns="http://www.w3.org/2000/svg">
<path fill-rule="evenodd" clip-rule="evenodd" d="M12 3C9.94691 3 8.09848 3.20396 6.73037 3.58704C6.05288 3.77673 5.42935 4.02761 4.95282 4.36552C4.48509 4.69718 4 5.23526 4 6V16.7574C4 17.7937 4.4252 18.9702 5.541 19.5796C6.74283 20.236 8.82857 21 12 21C15.1714 21 17.2572 20.236 18.459 19.5796C19.5748 18.9702 20 17.7937 20 16.7574V6C20 5.23526 19.5149 4.69718 19.0472 4.36552C18.5706 4.02761 17.9471 3.77673 17.2696 3.58704C15.9015 3.20396 14.0531 3 12 3ZM18 8.17396C17.7673 8.26303 17.5222 8.34225 17.2696 8.41296C15.9015 8.79604 14.0531 9 12 9C9.94691 9 8.09848 8.79604 6.73037 8.41296C6.47781 8.34225 6.23274 8.26303 6 8.17396V11.5184C6.2171 11.6687 6.55633 11.8752 7.03114 12.0862C8.02627 12.5285 9.63771 13 12 13C14.3623 13 15.9737 12.5285 16.9689 12.0862C17.4437 11.8752 17.7829 11.6687 18 11.5184V8.17396ZM18 13.8133C17.9294 13.8468 17.8564 13.8803 17.7811 13.9138C16.5263 14.4715 14.6377 15 12 15C9.36229 15 7.47373 14.4715 6.21886 13.9138C6.14356 13.8803 6.07062 13.8468 6 13.8133V16.7574C6 17.3123 6.2189 17.671 6.49967 17.8244C7.40827 18.3206 9.16448 19 12 19C14.8355 19 16.5917 18.3206 17.5003 17.8244C17.7811 17.671 18 17.3123 18 16.7574V13.8133ZM6 6L6.00431 5.99698C6.21906 5.84739 6.60226 5.67327 7.18501 5.51296C8.33714 5.19604 10.0182 5 12 5C13.9817 5 15.6628 5.19604 16.8149 5.51296C17.3977 5.67327 17.7809 5.84739 17.9956 5.99698L17.9999 6L17.9956 6.00302C17.7809 6.15261 17.3977 6.32673 16.8149 6.48704C15.6628 6.80396 13.9817 7 12 7C10.0182 7 8.33714 6.80396 7.18501 6.48704C6.60226 6.32673 6.21906 6.15261 6.00431 6.00302L6 6Z" fill="#0586E2"/>
</svg>
